<svg width="18" height="16" viewBox="0 0 18 16" fill="none" xmlns="http://www.w3.org/2000/svg">
<g id="LinkedIn svg" clip-path="url(#clip0_531_1741)">
<path id="Path 2525" d="M17.1167 14.6163C17.1553 14.6166 17.1936 14.6092 17.2292 14.5943C17.2648 14.5794 17.2969 14.5574 17.3235 14.5298C17.3502 14.5021 17.3708 14.4693 17.3841 14.4334C17.3975 14.3975 17.4032 14.3593 17.4009 14.3211C17.4009 14.1117 17.2734 14.0117 17.0117 14.0117H16.5889V15.1077H16.7479V14.63H16.9433L16.9478 14.6358L17.2511 15.1077H17.4212L17.0949 14.6193L17.1167 14.6163ZM16.9328 14.5065H16.7484V14.1359H16.9821C17.1028 14.1359 17.2405 14.1555 17.2405 14.312C17.2405 14.492 17.1012 14.5065 16.9318 14.5065" fill="#141238"/>
<path id="Path 2520" d="M12.9681 13.2429H10.713V9.74597C10.713 8.9121 10.6979 7.83865 9.54006 7.83865C8.36549 7.83865 8.18578 8.74718 8.18578 9.68526V13.2426H5.9306V6.05159H8.09556V7.03432H8.12587C8.34254 6.66752 8.65562 6.36577 9.03178 6.16122C9.40793 5.95666 9.83309 5.85696 10.2619 5.87272C12.5477 5.87272 12.9691 7.36136 12.9691 9.29798L12.9681 13.2429ZM3.38603 5.06862C3.12719 5.06867 2.87415 4.99272 2.65891 4.85037C2.44366 4.70802 2.2759 4.50567 2.17681 4.26891C2.07771 4.03215 2.05174 3.77161 2.10219 3.52024C2.15264 3.26886 2.27725 3.03795 2.46024 2.8567C2.64323 2.67544 2.8764 2.55198 3.13025 2.50194C3.38411 2.4519 3.64724 2.47751 3.88639 2.57555C4.12555 2.67358 4.32997 2.83963 4.47381 3.0527C4.61765 3.26577 4.69445 3.51629 4.6945 3.77258C4.69453 3.94275 4.6607 4.11125 4.59496 4.26848C4.52922 4.42571 4.43286 4.56857 4.31136 4.68892C4.18985 4.80927 4.04559 4.90475 3.88682 4.96989C3.72806 5.03504 3.55789 5.06859 3.38603 5.06862ZM4.51361 13.2429H2.25609V6.05159H4.51361V13.2429ZM14.0924 0.40337H1.12288C0.828506 0.400081 0.544843 0.512645 0.334246 0.716326C0.12365 0.920006 0.00334851 1.19814 -0.000244141 1.48961V14.3847C0.00322555 14.6763 0.123457 14.9546 0.334046 15.1585C0.544635 15.3624 0.82836 15.4752 1.12288 15.4721H14.0924C14.3875 15.4758 14.6721 15.3633 14.8835 15.1594C15.0949 14.9555 15.2159 14.6769 15.22 14.3847V1.48868C15.2158 1.19663 15.0947 0.918182 14.8833 0.714506C14.6718 0.51083 14.3874 0.398588 14.0924 0.40244" fill="#141238"/>
<path id="Path 2526" d="M16.9521 13.5234C16.6777 13.5261 16.4155 13.6361 16.2229 13.8296C16.0303 14.0231 15.9229 14.2843 15.9242 14.556C15.9255 14.8276 16.0355 15.0877 16.2299 15.2794C16.4244 15.471 16.6877 15.5786 16.962 15.5786C17.2364 15.5786 17.4997 15.471 17.6941 15.2794C17.8886 15.0877 17.9986 14.8276 17.9999 14.556C18.0012 14.2843 17.8938 14.0231 17.7012 13.8296C17.5086 13.6361 17.2464 13.5261 16.972 13.5234H16.9521ZM16.9521 15.461C16.7721 15.464 16.5953 15.414 16.444 15.3175C16.2927 15.2209 16.1737 15.0822 16.1021 14.9187C16.0304 14.7552 16.0093 14.5743 16.0415 14.399C16.0737 14.2236 16.1577 14.0617 16.2828 13.9336C16.4079 13.8055 16.5686 13.717 16.7445 13.6793C16.9205 13.6416 17.1037 13.6565 17.2711 13.7219C17.4386 13.7874 17.5826 13.9005 17.6851 14.047C17.7876 14.1935 17.8438 14.3668 17.8468 14.545C17.8468 14.5501 17.8468 14.555 17.8468 14.5601C17.8519 14.7939 17.7629 15.0201 17.5996 15.1889C17.4363 15.3578 17.2119 15.4555 16.9758 15.4605H16.9523" fill="#141238"/>
</g>
<defs>
<clipPath id="clip0_531_1741">
<rect width="18" height="15.1948" fill="white" transform="translate(0 0.402344)"/>
</clipPath>
</defs>
</svg>
